<svg version="1.1" baseProfile="full" width="852.0" height="808.0" viewBox="0 0 852 808" xmlns="http://www.w3.org/2000/svg" xmlns:xlink="http://www.w3.org/1999/xlink" xmlns:ev="http://www.w3.org/2001/xml-events">
	<title >Portamical_Packages_Dependencies</title>
	<desc >#title: Portamical_Packages_Dependencies
	#direction: right
	
	#.contract: fill=#DCE8CF title=center,italic,bold body=left,italic
	#.static: fill=#C9DEEF title=center,bold,underline body=left,italic
	#.package: title=bold,left visual=frame
	#.concrete: fill=#C9DEEF title=center,bold body=left
	#.abstract: fill=#C9DEEF title=center,bold, italic body=left
	
	#.core: fill=#ffe6e6 title=bold,left visual=frame
	#.shared: fill=#ffcccc title=bold,left visual=frame
	#.native: fill=#ffb3b3 title=bold,left visual=frame
	#.framework: fill=#80e5ff title=bold,left visual=frame
	
	[Frameworks] &lt;--
	[Adapters] --&gt;
	[Shared] --&gt;
	[Core]
	
	// Portamical.MSTest
	
	[&lt;framework&gt;MSTest.TestFramework | ] &lt;--
	[&lt;native&gt; Portamical.MSTest | ]
	
	// Portamical.NUnit
	
	[&lt;framework&gt;NUnitLite | ] &lt;--
	[&lt;native&gt; Portamical.NUnit | ]
	
	// Portamical.TUnit
	
	[&lt;framework&gt;TUnit.Core | ] &lt;--
	[&lt;native&gt; Portamical.TUnit | ]
	
	[&lt;framework&gt;TUnit.Assertions | ] &lt;--
	[Portamical.TUnit]
	
	// Portamical.xUnit
	
	[&lt;framework&gt;xunit.core | ] &lt;--
	[&lt;native&gt; Portamical.xUnit | ]
	
	[&lt;framework&gt;xunit.runner.visualstudio | ] &lt;--
	[Portamical.xUnit]
	
	[&lt;framework&gt;xunit.assert | ] &lt;--
	[Portamical.xUnit]
	
	// Portamical.xUnit_v3
	
	[&lt;framework&gt;xunit.v3.extensibility.core | ] &lt;--
	[&lt;native&gt; Portamical.xUnit_v3 | ]
	
	[&lt;framework&gt;xunit.v3.assert | ] &lt;--
	[Portamical.xUnit_v3]
	
	
	
	
	// Portamical
	[&lt;shared&gt; Portamical | ]
	
	[Portamical.NUnit] --&gt;
	[Portamical]
	
	[Portamical.TUnit] --&gt;
	[Portamical]
	
	[Portamical.MSTest] --&gt;
	[Portamical]
	
	[Portamical.xUnit_v3] --&gt;
	[Portamical]
	
	[Portamical.xUnit] --&gt;
	[Portamical]
	
	// Portamical.Core
	[Portamical] --&gt;
	[&lt;core&gt; Portamical.Core | ]
	</desc>
	<g stroke-width="1.0" text-align="left" font="12pt Helvetica, Arial, sans-serif" font-size="12pt" font-family="Helvetica" font-weight="bold" font-style="normal">
		<g font-family="Helvetica" font-size="12pt" font-weight="bold" font-style="normal" stroke-width="3.0" stroke-linejoin="round" stroke-linecap="round" stroke="#33322E">
			<g stroke="transparent" fill="transparent">
				<rect x="0.0" y="0.0" height="808.0" width="852.0" stroke="none"></rect>
			</g>
			<g transform="translate(8, 8)" fill="#33322E">
				<g transform="translate(20, 20)" fill="#33322E" font-family="Helvetica" font-size="12pt" font-weight="normal" font-style="normal">
					<g stroke-dasharray="6 6">
						<path d="M174.2 16.0 L245 16 L314.5 16 L314.5 16.0 " fill="none"></path>
					</g>
					<path d="M180.8 10.7 L174.2 16.0 L180.8 21.3 L167.5 16.0 Z"></path>
					<g stroke-dasharray="6 6">
						<path d="M399.5 16.0 L469 16 L503.8333333333333 16 L503.8 16.0 " fill="none"></path>
					</g>
					<path d="M497.2 21.3 L503.8 16.0 L497.2 10.7 L510.5 16.0 Z"></path>
					<g stroke-dasharray="6 6">
						<path d="M580.5 16.0 L622 16 L686.3333333333334 16 L686.3 16.0 " fill="none"></path>
					</g>
					<path d="M679.7 21.3 L686.3 16.0 L679.7 10.7 L693.0 16.0 Z"></path>
					<g stroke-dasharray="6 6">
						<path d="M223.2 332.0 L245 332 L270.5 332 L270.5 332.0 " fill="none"></path>
					</g>
					<path d="M229.8 326.7 L223.2 332.0 L229.8 337.3 L216.5 332.0 Z"></path>
					<g stroke-dasharray="6 6">
						<path d="M170.7 92.0 L245 92 L277 92 L277.0 92.0 " fill="none"></path>
					</g>
					<path d="M177.3 86.7 L170.7 92.0 L177.3 97.3 L164.0 92.0 Z"></path>
					<g stroke-dasharray="6 6">
						<path d="M175.7 172.0 L245 172 L301 192 L301.0 192.0 " fill="none"></path>
					</g>
					<path d="M182.3 166.7 L175.7 172.0 L182.3 177.3 L169.0 172.0 Z"></path>
					<g stroke-dasharray="6 6">
						<path d="M198.7 252.0 L245 252 L301 232 L301.0 232.0 " fill="none"></path>
					</g>
					<path d="M205.3 246.7 L198.7 252.0 L205.3 257.3 L192.0 252.0 Z"></path>
					<g stroke-dasharray="6 6">
						<path d="M173.2 572.0 L245 572 L329 632 L329.0 632.0 " fill="none"></path>
					</g>
					<path d="M179.8 566.7 L173.2 572.0 L179.8 577.3 L166.5 572.0 Z"></path>
					<g stroke-dasharray="6 6">
						<path d="M229.7 652.0 L245 652 L278.5 652 L278.5 652.0 " fill="none"></path>
					</g>
					<path d="M236.3 646.7 L229.7 652.0 L236.3 657.3 L223.0 652.0 Z"></path>
					<g stroke-dasharray="6 6">
						<path d="M179.7 732.0 L245 732 L329 672 L329.0 672.0 " fill="none"></path>
					</g>
					<path d="M186.3 726.7 L179.7 732.0 L186.3 737.3 L173.0 732.0 Z"></path>
					<g stroke-dasharray="6 6">
						<path d="M231.7 412.0 L245 412 L301 432 L301.0 432.0 " fill="none"></path>
					</g>
					<path d="M238.3 406.7 L231.7 412.0 L238.3 417.3 L225.0 412.0 Z"></path>
					<g stroke-dasharray="6 6">
						<path d="M190.7 492.0 L245 492 L301 472 L301.0 472.0 " fill="none"></path>
					</g>
					<path d="M197.3 486.7 L190.7 492.0 L197.3 497.3 L184.0 492.0 Z"></path>
					<g stroke-dasharray="6 6">
						<path d="M437.0 92.0 L469 92 L537.1003653612627 305.6482050549416 L537.1 305.6 " fill="none"></path>
					</g>
					<path d="M530.0 300.9 L537.1 305.6 L540.2 297.7 L539.1 312.0 Z"></path>
					<g stroke-dasharray="6 6">
						<path d="M436.0 212.0 L469 212 L529.1662844082564 306.3784853462845 L529.2 306.4 " fill="none"></path>
					</g>
					<path d="M521.1 303.6 L529.2 306.4 L530.1 297.9 L532.8 312.0 Z"></path>
					<g stroke-dasharray="6 6">
						<path d="M443.5 332.0 L469 332 L482.3333333333333 332 L482.3 332.0 " fill="none"></path>
					</g>
					<path d="M475.7 337.3 L482.3 332.0 L475.7 326.7 L489.0 332.0 Z"></path>
					<g stroke-dasharray="6 6">
						<path d="M449.0 452.0 L469 452 L529.1662844082564 357.6215146537155 L529.2 357.6 " fill="none"></path>
					</g>
					<path d="M530.1 366.1 L529.2 357.6 L521.1 360.4 L532.8 352.0 Z"></path>
					<g stroke-dasharray="6 6">
						<path d="M435.5 652.0 L469 652 L539.168678575357 358.48395890046737 L539.2 358.5 " fill="none"></path>
					</g>
					<path d="M542.8 366.2 L539.2 358.5 L532.4 363.7 L540.7 352.0 Z"></path>
					<g stroke-dasharray="6 6">
						<path d="M602.0 332.0 L622 332 L635.3333333333334 332 L635.3 332.0 " fill="none"></path>
					</g>
					<path d="M628.7 337.3 L635.3 332.0 L628.7 326.7 L642.0 332.0 Z"></path>
					<g data-name="Frameworks">
						<g fill="#eee8d5" stroke="#33322E" data-name="Frameworks">
							<rect x="57.5" y="0.0" height="32.0" width="110.0" data-name="Frameworks"></rect>
						</g>
						<g transform="translate(57.5, 0)" font-family="Helvetica" font-size="12pt" font-weight="bold" font-style="normal" data-name="Frameworks" data-compartment="0">
							<g transform="translate(8, 8)" fill="#33322E" text-align="center" data-name="Frameworks" data-compartment="0">
								<text x="47.0" y="14.1" stroke="none" text-anchor="middle" data-name="Frameworks" data-compartment="0">Frameworks</text>
								
							</g>
						</g>
					</g>
					<g data-name="Adapters">
						<g fill="#eee8d5" stroke="#33322E" data-name="Adapters">
							<rect x="314.5" y="0.0" height="32.0" width="85.0" data-name="Adapters"></rect>
						</g>
						<g transform="translate(314.5, 0)" font-family="Helvetica" font-size="12pt" font-weight="bold" font-style="normal" data-name="Adapters" data-compartment="0">
							<g transform="translate(8, 8)" fill="#33322E" text-align="center" data-name="Adapters" data-compartment="0">
								<text x="34.5" y="14.1" stroke="none" text-anchor="middle" data-name="Adapters" data-compartment="0">Adapters</text>
								
							</g>
						</g>
					</g>
					<g data-name="Shared">
						<g fill="#eee8d5" stroke="#33322E" data-name="Shared">
							<rect x="510.5" y="0.0" height="32.0" width="70.0" data-name="Shared"></rect>
						</g>
						<g transform="translate(510.5, 0)" font-family="Helvetica" font-size="12pt" font-weight="bold" font-style="normal" data-name="Shared" data-compartment="0">
							<g transform="translate(8, 8)" fill="#33322E" text-align="center" data-name="Shared" data-compartment="0">
								<text x="27.0" y="14.1" stroke="none" text-anchor="middle" data-name="Shared" data-compartment="0">Shared</text>
								
							</g>
						</g>
					</g>
					<g data-name="Core">
						<g fill="#eee8d5" stroke="#33322E" data-name="Core">
							<rect x="693.0" y="0.0" height="32.0" width="52.0" data-name="Core"></rect>
						</g>
						<g transform="translate(693, 0)" font-family="Helvetica" font-size="12pt" font-weight="bold" font-style="normal" data-name="Core" data-compartment="0">
							<g transform="translate(8, 8)" fill="#33322E" text-align="center" data-name="Core" data-compartment="0">
								<text x="18.0" y="14.1" stroke="none" text-anchor="middle" data-name="Core" data-compartment="0">Core</text>
								
							</g>
						</g>
					</g>
					<g data-name="MSTest.TestFramework">
						<g fill="#80e5ff" stroke="#33322E" data-name="MSTest.TestFramework">
							<rect x="8.5" y="312.0" height="40.0" width="208.0" data-name="MSTest.TestFramework"></rect>
							<path d="M8.5 344.0 L192.5 344.0 L208.5 328.0 L208.5 312.0" fill="none" data-name="MSTest.TestFramework"></path>
						</g>
						<g transform="translate(8.5, 312)" font-family="Helvetica" font-size="12pt" font-weight="bold" font-style="normal" data-name="MSTest.TestFramework" data-compartment="0">
							<g transform="translate(8, 8)" fill="#33322E" text-align="left" data-name="MSTest.TestFramework" data-compartment="0">
								<text x="0.0" y="14.1" stroke="none" data-name="MSTest.TestFramework" data-compartment="0">MSTest.TestFramework</text>
								
							</g>
						</g>
						<g transform="translate(8.5, 344)" font-family="Helvetica" font-size="12pt" font-weight="normal" font-style="normal" data-name="MSTest.TestFramework" data-compartment="1">
							<g transform="translate(8, 8)" fill="#33322E" data-name="MSTest.TestFramework" data-compartment="1">
								
							</g>
						</g>
					</g>
					<g data-name="Portamical.MSTest">
						<g fill="#ffb3b3" stroke="#33322E" data-name="Portamical.MSTest">
							<rect x="270.5" y="312.0" height="40.0" width="173.0" data-name="Portamical.MSTest"></rect>
							<path d="M270.5 344.0 L419.5 344.0 L435.5 328.0 L435.5 312.0" fill="none" data-name="Portamical.MSTest"></path>
						</g>
						<g transform="translate(270.5, 312)" font-family="Helvetica" font-size="12pt" font-weight="bold" font-style="normal" data-name="Portamical.MSTest" data-compartment="0">
							<g transform="translate(8, 8)" fill="#33322E" text-align="left" data-name="Portamical.MSTest" data-compartment="0">
								<text x="0.0" y="14.1" stroke="none" data-name="Portamical.MSTest" data-compartment="0">Portamical.MSTest</text>
								
							</g>
						</g>
						<g transform="translate(270.5, 344)" font-family="Helvetica" font-size="12pt" font-weight="normal" font-style="normal" data-name="Portamical.MSTest" data-compartment="1">
							<g transform="translate(8, 8)" fill="#33322E" data-name="Portamical.MSTest" data-compartment="1">
								
							</g>
						</g>
					</g>
					<g data-name="NUnitLite">
						<g fill="#80e5ff" stroke="#33322E" data-name="NUnitLite">
							<rect x="61.0" y="72.0" height="40.0" width="103.0" data-name="NUnitLite"></rect>
							<path d="M61.0 104.0 L140.0 104.0 L156.0 88.0 L156.0 72.0" fill="none" data-name="NUnitLite"></path>
						</g>
						<g transform="translate(61, 72)" font-family="Helvetica" font-size="12pt" font-weight="bold" font-style="normal" data-name="NUnitLite" data-compartment="0">
							<g transform="translate(8, 8)" fill="#33322E" text-align="left" data-name="NUnitLite" data-compartment="0">
								<text x="0.0" y="14.1" stroke="none" data-name="NUnitLite" data-compartment="0">NUnitLite</text>
								
							</g>
						</g>
						<g transform="translate(61, 104)" font-family="Helvetica" font-size="12pt" font-weight="normal" font-style="normal" data-name="NUnitLite" data-compartment="1">
							<g transform="translate(8, 8)" fill="#33322E" data-name="NUnitLite" data-compartment="1">
								
							</g>
						</g>
					</g>
					<g data-name="Portamical.NUnit">
						<g fill="#ffb3b3" stroke="#33322E" data-name="Portamical.NUnit">
							<rect x="277.0" y="72.0" height="40.0" width="160.0" data-name="Portamical.NUnit"></rect>
							<path d="M277.0 104.0 L413.0 104.0 L429.0 88.0 L429.0 72.0" fill="none" data-name="Portamical.NUnit"></path>
						</g>
						<g transform="translate(277, 72)" font-family="Helvetica" font-size="12pt" font-weight="bold" font-style="normal" data-name="Portamical.NUnit" data-compartment="0">
							<g transform="translate(8, 8)" fill="#33322E" text-align="left" data-name="Portamical.NUnit" data-compartment="0">
								<text x="0.0" y="14.1" stroke="none" data-name="Portamical.NUnit" data-compartment="0">Portamical.NUnit</text>
								
							</g>
						</g>
						<g transform="translate(277, 104)" font-family="Helvetica" font-size="12pt" font-weight="normal" font-style="normal" data-name="Portamical.NUnit" data-compartment="1">
							<g transform="translate(8, 8)" fill="#33322E" data-name="Portamical.NUnit" data-compartment="1">
								
							</g>
						</g>
					</g>
					<g data-name="TUnit.Core">
						<g fill="#80e5ff" stroke="#33322E" data-name="TUnit.Core">
							<rect x="56.0" y="152.0" height="40.0" width="113.0" data-name="TUnit.Core"></rect>
							<path d="M56.0 184.0 L145.0 184.0 L161.0 168.0 L161.0 152.0" fill="none" data-name="TUnit.Core"></path>
						</g>
						<g transform="translate(56, 152)" font-family="Helvetica" font-size="12pt" font-weight="bold" font-style="normal" data-name="TUnit.Core" data-compartment="0">
							<g transform="translate(8, 8)" fill="#33322E" text-align="left" data-name="TUnit.Core" data-compartment="0">
								<text x="0.0" y="14.1" stroke="none" data-name="TUnit.Core" data-compartment="0">TUnit.Core</text>
								
							</g>
						</g>
						<g transform="translate(56, 184)" font-family="Helvetica" font-size="12pt" font-weight="normal" font-style="normal" data-name="TUnit.Core" data-compartment="1">
							<g transform="translate(8, 8)" fill="#33322E" data-name="TUnit.Core" data-compartment="1">
								
							</g>
						</g>
					</g>
					<g data-name="Portamical.TUnit">
						<g fill="#ffb3b3" stroke="#33322E" data-name="Portamical.TUnit">
							<rect x="278.0" y="192.0" height="40.0" width="158.0" data-name="Portamical.TUnit"></rect>
							<path d="M278.0 224.0 L412.0 224.0 L428.0 208.0 L428.0 192.0" fill="none" data-name="Portamical.TUnit"></path>
						</g>
						<g transform="translate(278, 192)" font-family="Helvetica" font-size="12pt" font-weight="bold" font-style="normal" data-name="Portamical.TUnit" data-compartment="0">
							<g transform="translate(8, 8)" fill="#33322E" text-align="left" data-name="Portamical.TUnit" data-compartment="0">
								<text x="0.0" y="14.1" stroke="none" data-name="Portamical.TUnit" data-compartment="0">Portamical.TUnit</text>
								
							</g>
						</g>
						<g transform="translate(278, 224)" font-family="Helvetica" font-size="12pt" font-weight="normal" font-style="normal" data-name="Portamical.TUnit" data-compartment="1">
							<g transform="translate(8, 8)" fill="#33322E" data-name="Portamical.TUnit" data-compartment="1">
								
							</g>
						</g>
					</g>
					<g data-name="TUnit.Assertions">
						<g fill="#80e5ff" stroke="#33322E" data-name="TUnit.Assertions">
							<rect x="33.0" y="232.0" height="40.0" width="159.0" data-name="TUnit.Assertions"></rect>
							<path d="M33.0 264.0 L168.0 264.0 L184.0 248.0 L184.0 232.0" fill="none" data-name="TUnit.Assertions"></path>
						</g>
						<g transform="translate(33, 232)" font-family="Helvetica" font-size="12pt" font-weight="bold" font-style="normal" data-name="TUnit.Assertions" data-compartment="0">
							<g transform="translate(8, 8)" fill="#33322E" text-align="left" data-name="TUnit.Assertions" data-compartment="0">
								<text x="0.0" y="14.1" stroke="none" data-name="TUnit.Assertions" data-compartment="0">TUnit.Assertions</text>
								
							</g>
						</g>
						<g transform="translate(33, 264)" font-family="Helvetica" font-size="12pt" font-weight="normal" font-style="normal" data-name="TUnit.Assertions" data-compartment="1">
							<g transform="translate(8, 8)" fill="#33322E" data-name="TUnit.Assertions" data-compartment="1">
								
							</g>
						</g>
					</g>
					<g data-name="xunit.core">
						<g fill="#80e5ff" stroke="#33322E" data-name="xunit.core">
							<rect x="58.5" y="552.0" height="40.0" width="108.0" data-name="xunit.core"></rect>
							<path d="M58.5 584.0 L142.5 584.0 L158.5 568.0 L158.5 552.0" fill="none" data-name="xunit.core"></path>
						</g>
						<g transform="translate(58.5, 552)" font-family="Helvetica" font-size="12pt" font-weight="bold" font-style="normal" data-name="xunit.core" data-compartment="0">
							<g transform="translate(8, 8)" fill="#33322E" text-align="left" data-name="xunit.core" data-compartment="0">
								<text x="0.0" y="14.1" stroke="none" data-name="xunit.core" data-compartment="0">xunit.core</text>
								
							</g>
						</g>
						<g transform="translate(58.5, 584)" font-family="Helvetica" font-size="12pt" font-weight="normal" font-style="normal" data-name="xunit.core" data-compartment="1">
							<g transform="translate(8, 8)" fill="#33322E" data-name="xunit.core" data-compartment="1">
								
							</g>
						</g>
					</g>
					<g data-name="Portamical.xUnit">
						<g fill="#ffb3b3" stroke="#33322E" data-name="Portamical.xUnit">
							<rect x="278.5" y="632.0" height="40.0" width="157.0" data-name="Portamical.xUnit"></rect>
							<path d="M278.5 664.0 L411.5 664.0 L427.5 648.0 L427.5 632.0" fill="none" data-name="Portamical.xUnit"></path>
						</g>
						<g transform="translate(278.5, 632)" font-family="Helvetica" font-size="12pt" font-weight="bold" font-style="normal" data-name="Portamical.xUnit" data-compartment="0">
							<g transform="translate(8, 8)" fill="#33322E" text-align="left" data-name="Portamical.xUnit" data-compartment="0">
								<text x="0.0" y="14.1" stroke="none" data-name="Portamical.xUnit" data-compartment="0">Portamical.xUnit</text>
								
							</g>
						</g>
						<g transform="translate(278.5, 664)" font-family="Helvetica" font-size="12pt" font-weight="normal" font-style="normal" data-name="Portamical.xUnit" data-compartment="1">
							<g transform="translate(8, 8)" fill="#33322E" data-name="Portamical.xUnit" data-compartment="1">
								
							</g>
						</g>
					</g>
					<g data-name="xunit.runner.visualstudio">
						<g fill="#80e5ff" stroke="#33322E" data-name="xunit.runner.visualstudio">
							<rect x="2.0" y="632.0" height="40.0" width="221.0" data-name="xunit.runner.visualstudio"></rect>
							<path d="M2.0 664.0 L199.0 664.0 L215.0 648.0 L215.0 632.0" fill="none" data-name="xunit.runner.visualstudio"></path>
						</g>
						<g transform="translate(2, 632)" font-family="Helvetica" font-size="12pt" font-weight="bold" font-style="normal" data-name="xunit.runner.visualstudio" data-compartment="0">
							<g transform="translate(8, 8)" fill="#33322E" text-align="left" data-name="xunit.runner.visualstudio" data-compartment="0">
								<text x="0.0" y="14.1" stroke="none" data-name="xunit.runner.visualstudio" data-compartment="0">xunit.runner.visualstudio</text>
								
							</g>
						</g>
						<g transform="translate(2, 664)" font-family="Helvetica" font-size="12pt" font-weight="normal" font-style="normal" data-name="xunit.runner.visualstudio" data-compartment="1">
							<g transform="translate(8, 8)" fill="#33322E" data-name="xunit.runner.visualstudio" data-compartment="1">
								
							</g>
						</g>
					</g>
					<g data-name="xunit.assert">
						<g fill="#80e5ff" stroke="#33322E" data-name="xunit.assert">
							<rect x="52.0" y="712.0" height="40.0" width="121.0" data-name="xunit.assert"></rect>
							<path d="M52.0 744.0 L149.0 744.0 L165.0 728.0 L165.0 712.0" fill="none" data-name="xunit.assert"></path>
						</g>
						<g transform="translate(52, 712)" font-family="Helvetica" font-size="12pt" font-weight="bold" font-style="normal" data-name="xunit.assert" data-compartment="0">
							<g transform="translate(8, 8)" fill="#33322E" text-align="left" data-name="xunit.assert" data-compartment="0">
								<text x="0.0" y="14.1" stroke="none" data-name="xunit.assert" data-compartment="0">xunit.assert</text>
								
							</g>
						</g>
						<g transform="translate(52, 744)" font-family="Helvetica" font-size="12pt" font-weight="normal" font-style="normal" data-name="xunit.assert" data-compartment="1">
							<g transform="translate(8, 8)" fill="#33322E" data-name="xunit.assert" data-compartment="1">
								
							</g>
						</g>
					</g>
					<g data-name="xunit.v3.extensibility.core">
						<g fill="#80e5ff" stroke="#33322E" data-name="xunit.v3.extensibility.core">
							<rect x="0.0" y="392.0" height="40.0" width="225.0" data-name="xunit.v3.extensibility.core"></rect>
							<path d="M0.0 424.0 L201.0 424.0 L217.0 408.0 L217.0 392.0" fill="none" data-name="xunit.v3.extensibility.core"></path>
						</g>
						<g transform="translate(0, 392)" font-family="Helvetica" font-size="12pt" font-weight="bold" font-style="normal" data-name="xunit.v3.extensibility.core" data-compartment="0">
							<g transform="translate(8, 8)" fill="#33322E" text-align="left" data-name="xunit.v3.extensibility.core" data-compartment="0">
								<text x="0.0" y="14.1" stroke="none" data-name="xunit.v3.extensibility.core" data-compartment="0">xunit.v3.extensibility.core</text>
								
							</g>
						</g>
						<g transform="translate(0, 424)" font-family="Helvetica" font-size="12pt" font-weight="normal" font-style="normal" data-name="xunit.v3.extensibility.core" data-compartment="1">
							<g transform="translate(8, 8)" fill="#33322E" data-name="xunit.v3.extensibility.core" data-compartment="1">
								
							</g>
						</g>
					</g>
					<g data-name="Portamical.xUnit_v3">
						<g fill="#ffb3b3" stroke="#33322E" data-name="Portamical.xUnit_v3">
							<rect x="265.0" y="432.0" height="40.0" width="184.0" data-name="Portamical.xUnit_v3"></rect>
							<path d="M265.0 464.0 L425.0 464.0 L441.0 448.0 L441.0 432.0" fill="none" data-name="Portamical.xUnit_v3"></path>
						</g>
						<g transform="translate(265, 432)" font-family="Helvetica" font-size="12pt" font-weight="bold" font-style="normal" data-name="Portamical.xUnit_v3" data-compartment="0">
							<g transform="translate(8, 8)" fill="#33322E" text-align="left" data-name="Portamical.xUnit_v3" data-compartment="0">
								<text x="0.0" y="14.1" stroke="none" data-name="Portamical.xUnit_v3" data-compartment="0">Portamical.xUnit_v3</text>
								
							</g>
						</g>
						<g transform="translate(265, 464)" font-family="Helvetica" font-size="12pt" font-weight="normal" font-style="normal" data-name="Portamical.xUnit_v3" data-compartment="1">
							<g transform="translate(8, 8)" fill="#33322E" data-name="Portamical.xUnit_v3" data-compartment="1">
								
							</g>
						</g>
					</g>
					<g data-name="xunit.v3.assert">
						<g fill="#80e5ff" stroke="#33322E" data-name="xunit.v3.assert">
							<rect x="41.0" y="472.0" height="40.0" width="143.0" data-name="xunit.v3.assert"></rect>
							<path d="M41.0 504.0 L160.0 504.0 L176.0 488.0 L176.0 472.0" fill="none" data-name="xunit.v3.assert"></path>
						</g>
						<g transform="translate(41, 472)" font-family="Helvetica" font-size="12pt" font-weight="bold" font-style="normal" data-name="xunit.v3.assert" data-compartment="0">
							<g transform="translate(8, 8)" fill="#33322E" text-align="left" data-name="xunit.v3.assert" data-compartment="0">
								<text x="0.0" y="14.1" stroke="none" data-name="xunit.v3.assert" data-compartment="0">xunit.v3.assert</text>
								
							</g>
						</g>
						<g transform="translate(41, 504)" font-family="Helvetica" font-size="12pt" font-weight="normal" font-style="normal" data-name="xunit.v3.assert" data-compartment="1">
							<g transform="translate(8, 8)" fill="#33322E" data-name="xunit.v3.assert" data-compartment="1">
								
							</g>
						</g>
					</g>
					<g data-name="Portamical">
						<g fill="#ffcccc" stroke="#33322E" data-name="Portamical">
							<rect x="489.0" y="312.0" height="40.0" width="113.0" data-name="Portamical"></rect>
							<path d="M489.0 344.0 L578.0 344.0 L594.0 328.0 L594.0 312.0" fill="none" data-name="Portamical"></path>
						</g>
						<g transform="translate(489, 312)" font-family="Helvetica" font-size="12pt" font-weight="bold" font-style="normal" data-name="Portamical" data-compartment="0">
							<g transform="translate(8, 8)" fill="#33322E" text-align="left" data-name="Portamical" data-compartment="0">
								<text x="0.0" y="14.1" stroke="none" data-name="Portamical" data-compartment="0">Portamical</text>
								
							</g>
						</g>
						<g transform="translate(489, 344)" font-family="Helvetica" font-size="12pt" font-weight="normal" font-style="normal" data-name="Portamical" data-compartment="1">
							<g transform="translate(8, 8)" fill="#33322E" data-name="Portamical" data-compartment="1">
								
							</g>
						</g>
					</g>
					<g data-name="Portamical.Core">
						<g fill="#ffe6e6" stroke="#33322E" data-name="Portamical.Core">
							<rect x="642.0" y="312.0" height="40.0" width="154.0" data-name="Portamical.Core"></rect>
							<path d="M642.0 344.0 L772.0 344.0 L788.0 328.0 L788.0 312.0" fill="none" data-name="Portamical.Core"></path>
						</g>
						<g transform="translate(642, 312)" font-family="Helvetica" font-size="12pt" font-weight="bold" font-style="normal" data-name="Portamical.Core" data-compartment="0">
							<g transform="translate(8, 8)" fill="#33322E" text-align="left" data-name="Portamical.Core" data-compartment="0">
								<text x="0.0" y="14.1" stroke="none" data-name="Portamical.Core" data-compartment="0">Portamical.Core</text>
								
							</g>
						</g>
						<g transform="translate(642, 344)" font-family="Helvetica" font-size="12pt" font-weight="normal" font-style="normal" data-name="Portamical.Core" data-compartment="1">
							<g transform="translate(8, 8)" fill="#33322E" data-name="Portamical.Core" data-compartment="1">
								
							</g>
						</g>
					</g>
				</g>
			</g>
		</g>
	</g>
</svg>